<?xml version="1.0" encoding="utf-8"?><svg xmlns="http://www.w3.org/2000/svg" xmlns:xlink="http://www.w3.org/1999/xlink" width="2088" height="1065" preserveAspectRatio="xMidYMid" viewBox="0 0 2088 1065" style="z-index:1;margin-right:-2px;display:block;animation-play-state:paused" ><g transform="translate(1044,532.5) scale(1,1) translate(-1044,-532.5)" style="transform:matrix(1, 0, 0, 1, 0, 0);animation-play-state:paused" ><path id="path0" d="M 1541.081589144075 76.5197770229727
c 0 33.47352084910166 -8.190329569461044 9.61473471197601 -17.805064281437055 9.61473471197601
S 1505.4714605812007 109.99329787207436 1505.4714605812007 76.5197770229727
s 8.190329569461044 -9.61473471197601 17.805064281437055 -9.61473471197601
S 1541.081589144075 43.04625617387104 1541.081589144075 76.5197770229727
z" fill="none" stroke="none" style="animation-play-state:paused" ></path>


<circle cx="0" cy="0" r="2.2742807643228438" fill="#ffffff" opacity="0.9" transform="translate(1534.099609375 60.323486328125)" style="opacity:0.9;animation-play-state:paused" ></circle>
<path id="path1" d="M 787.1123075015522 161.59589516893988
c 0 32.067734271700914 -7.846360513288522 9.210944950382178 -17.0573054636707 9.210944950382178
S 752.9976965742109 193.6636294406408 752.9976965742109 161.59589516893988
s 7.846360513288522 -9.210944950382178 17.0573054636707 -9.210944950382178
S 787.1123075015522 129.52816089723896 787.1123075015522 161.59589516893988
z" fill="none" stroke="none" style="animation-play-state:paused" ></path>


<circle cx="0" cy="0" r="2.4233505599886613" fill="#ffffff" opacity="0.9" transform="translate(765.834228515625 150.99050903320312)" style="opacity:0.9;animation-play-state:paused" ></circle>
<path id="path2" d="M 245.5425142153692 156.91129826819795
c 0 22.141586277513543 -5.417622174285229 6.3598173350304865 -11.777439509315714 6.3598173350304865
S 221.98763519673778 179.0528845457115 221.98763519673778 156.91129826819795
s 5.417622174285229 -6.3598173350304865 11.777439509315714 -6.3598173350304865
S 245.5425142153692 134.7697119906844 245.5425142153692 156.91129826819795
z" fill="none" stroke="none" style="animation-play-state:paused" ></path>


<circle cx="0" cy="0" r="2.277070217509569" fill="#ffffff" opacity="0.9" transform="translate(245.5364227294922 155.69114685058594)" style="opacity:0.9;animation-play-state:paused" ></circle>
<path id="path3" d="M 1754.1292796890732 187.7433271810433
c 0 29.81213734461291 -7.2944591375116685 8.563060726644133 -15.857519864155803 8.563060726644133
S 1722.4142399607615 217.55546452565622 1722.4142399607615 187.7433271810433
s 7.2944591375116685 -8.563060726644133 15.857519864155803 -8.563060726644133
S 1754.1292796890732 157.93118983643038 1754.1292796890732 187.7433271810433
z" fill="none" stroke="none" style="animation-play-state:paused" ></path>


<circle cx="0" cy="0" r="2.2974986571977327" fill="#ffffff" opacity="0.9" transform="translate(1724.2520751953125 202.78504943847656)" style="opacity:0.9;animation-play-state:paused" ></circle>
<path id="path4" d="M 761.1411226087242 541.6212241430422
c 0 20.188670558673202 -4.939781094143442 5.798873458342302 -10.738654552485745 5.798873458342302
S 739.6638135037527 561.8098947017154 739.6638135037527 541.6212241430422
s 4.939781094143442 -5.798873458342302 10.738654552485745 -5.798873458342302
S 761.1411226087242 521.4325535843691 761.1411226087242 541.6212241430422
z" fill="none" stroke="none" style="animation-play-state:paused" ></path>


<circle cx="0" cy="0" r="2.3668358157547074" fill="#ffffff" opacity="0.9" transform="translate(761.0740966796875 545.2655639648438)" style="opacity:0.9;animation-play-state:paused" ></circle>
<path id="path5" d="M 174.94572473955745 587.6613105099635
c 0 33.59662909555897 -8.220451799977193 9.650095591277575 -17.870547391254767 9.650095591277575
S 139.2046299570479 621.2579396055226 139.2046299570479 587.6613105099635
s 8.220451799977193 -9.650095591277575 17.870547391254767 -9.650095591277575
S 174.94572473955745 554.0646814144045 174.94572473955745 587.6613105099635
z" fill="none" stroke="none" style="animation-play-state:paused" ></path>


<circle cx="0" cy="0" r="2.059756511789184" fill="#ffffff" opacity="0.9" transform="translate(160.03147888183594 577.325927734375)" style="opacity:0.9;animation-play-state:paused" ></circle>
<path id="path6" d="M 341.1070352140636 303.8388334279538
c 0 31.97201026316478 -7.822938681412658 9.183449756440949 -17.006388437853605 9.183449756440949
S 307.0942583383564 335.8108436911186 307.0942583383564 303.8388334279538
s 7.822938681412658 -9.183449756440949 17.006388437853605 -9.183449756440949
S 341.1070352140636 271.86682316478897 341.1070352140636 303.8388334279538
z" fill="none" stroke="none" style="animation-play-state:paused" ></path>


<circle cx="0" cy="0" r="2.3629009029699173" fill="#ffffff" opacity="0.9" transform="translate(340.3037414550781 316.66552734375)" style="opacity:0.9;animation-play-state:paused" ></circle>
<path id="path7" d="M 1491.0916199242624 400.5232173655433
c 0 21.16104567147043 -5.177702664295955 6.078172692869166 -11.255875357165122 6.078172692869166
S 1468.579869209932 421.68426303701375 1468.579869209932 400.5232173655433
s 5.177702664295955 -6.078172692869166 11.255875357165122 -6.078172692869166
S 1491.0916199242624 379.36217169407286 1491.0916199242624 400.5232173655433
z" fill="none" stroke="none" style="animation-play-state:paused" ></path>


<circle cx="0" cy="0" r="1.6822901162655632" fill="#ffffff" opacity="0.9" transform="translate(1487.8238525390625 411.5406799316406)" style="opacity:0.9;animation-play-state:paused" ></circle>
<path id="path8" d="M 461.20807662226275 507.63926241095623
c 0 26.715780637291815 -6.536839943167145 7.673681672413606 -14.21052161558075 7.673681672413606
S 432.7870333911012 534.355043048248 432.7870333911012 507.63926241095623
s 6.536839943167145 -7.673681672413606 14.21052161558075 -7.673681672413606
S 461.20807662226275 480.92348177366443 461.20807662226275 507.63926241095623
z" fill="none" stroke="none" style="animation-play-state:paused" ></path>


<circle cx="0" cy="0" r="2.075825793738377" fill="#ffffff" opacity="0.9" transform="translate(461.0460205078125 501.3776550292969)" style="opacity:0.9;animation-play-state:paused" ></circle>
<path id="path9" d="M 1637.450316417623 891.0462649722303
c 0 33.377230002530446 -8.16676904317234 9.587076702854489 -17.75384574602683 9.587076702854489
S 1601.9426249255694 924.4234949747608 1601.9426249255694 891.0462649722303
s 8.16676904317234 -9.587076702854489 17.75384574602683 -9.587076702854489
S 1637.450316417623 857.6690349696999 1637.450316417623 891.0462649722303
z" fill="none" stroke="none" style="animation-play-state:paused" ></path>


<circle cx="0" cy="0" r="2.001159330703243" fill="#ffffff" opacity="0.9" transform="translate(1622.73974609375 901.36181640625)" style="opacity:0.9;animation-play-state:paused" ></circle>
<path id="path10" d="M 998.2852330652385 523.2988511398905
c 0 24.008767491410723 -5.874485662791985 6.896135343277549 -12.770621006069533 6.896135343277549
S 972.7439910530994 547.3076186313012 972.7439910530994 523.2988511398905
s 5.874485662791985 -6.896135343277549 12.770621006069533 -6.896135343277549
S 998.2852330652385 499.2900836484798 998.2852330652385 523.2988511398905
z" fill="none" stroke="none" style="animation-play-state:paused" ></path>


<circle cx="0" cy="0" r="1.6019049732642434" fill="#ffffff" opacity="0.9" transform="translate(992.7911376953125 512.0806274414062)" style="opacity:0.9;animation-play-state:paused" ></circle>
<path id="path11" d="M 1281.2515661811558 977.7121510467801
c 0 24.428208849037958 -5.977114931147585 7.016613180042818 -12.993728111190403 7.016613180042818
S 1255.264109958775 1002.1403598958182 1255.264109958775 977.7121510467801
s 5.977114931147585 -7.016613180042818 12.993728111190403 -7.016613180042818
S 1281.2515661811558 953.2839421977421 1281.2515661811558 977.7121510467801
z" fill="none" stroke="none" style="animation-play-state:paused" ></path>


<circle cx="0" cy="0" r="2.2822610081637094" fill="#ffffff" opacity="0.9" transform="translate(1271.9835205078125 986.1209106445312)" style="opacity:0.9;animation-play-state:paused" ></circle>
<path id="path12" d="M 1120.9164912367305 408.82179768859515
c 0 26.840118995124346 -6.567263158381488 7.70939588157827 -14.276659039959759 7.70939588157827
S 1092.3631731568112 435.6619166837195 1092.3631731568112 408.82179768859515
s 6.567263158381488 -7.70939588157827 14.276659039959759 -7.70939588157827
S 1120.9164912367305 381.9816786934708 1120.9164912367305 408.82179768859515
z" fill="none" stroke="none" style="animation-play-state:paused" ></path>


<circle cx="0" cy="0" r="1.4930370725467081" fill="#ffffff" opacity="0.9" transform="translate(1092.552978515625 415.53045654296875)" style="opacity:0.9;animation-play-state:paused" ></circle>
<path id="path13" d="M 1643.7557752930718 1012.7409082530442
c 0 22.04372056291151 -5.393676307946432 6.3317069701979865 -11.725383278144418 6.3317069701979865
S 1620.305008736783 1034.7846288159556 1620.305008736783 1012.7409082530442
s 5.393676307946432 -6.3317069701979865 11.725383278144418 -6.3317069701979865
S 1643.7557752930718 990.6971876901326 1643.7557752930718 1012.7409082530442
z" fill="none" stroke="none" style="animation-play-state:paused" ></path>


<circle cx="0" cy="0" r="1.620795674014027" fill="#ffffff" opacity="0.9" transform="translate(1643.6661376953125 1008.401123046875)" style="opacity:0.9;animation-play-state:paused" ></circle>
<path id="path14" d="M 1827.1482395336393 783.3211818617713
c 0 36.16090701016966 -8.84788150248832 10.386643502921073 -19.23452500540939 10.386643502921073
S 1788.6791895228207 819.482088871941 1788.6791895228207 783.3211818617713
s 8.84788150248832 -10.386643502921073 19.23452500540939 -10.386643502921073
S 1827.1482395336393 747.1602748516016 1827.1482395336393 783.3211818617713
z" fill="none" stroke="none" style="animation-play-state:paused" ></path>


<circle cx="0" cy="0" r="1.4741311574380944" fill="#ffffff" opacity="0.9" transform="translate(1790.329345703125 800.46923828125)" style="opacity:0.9;animation-play-state:paused" ></circle>
<path id="path15" d="M 1796.4219866006185 305.8605820589872
c 0 20.639197644240472 -5.050016444867349 5.9282801744094975 -10.978296619276847 5.9282801744094975
S 1774.465393362065 326.49977970322766 1774.465393362065 305.8605820589872
s 5.050016444867349 -5.9282801744094975 10.978296619276847 -5.9282801744094975
S 1796.4219866006185 285.2213844147467 1796.4219866006185 305.8605820589872
z" fill="none" stroke="none" style="animation-play-state:paused" ></path>


<circle cx="0" cy="0" r="2.3787560388674973" fill="#ffffff" opacity="0.9" transform="translate(1787.8428955078125 299.2197265625)" style="opacity:0.9;animation-play-state:paused" ></circle>
<path id="path16" d="M 527.5738140700216 941.1145320684844
c 0 26.56172603779987 -6.499145732653158 7.629431947027622 -14.128577679680781 7.629431947027622
S 499.31665871066 967.6762581062843 499.31665871066 941.1145320684844
s 6.499145732653158 -7.629431947027622 14.128577679680781 -7.629431947027622
S 527.5738140700216 914.5528060306846 527.5738140700216 941.1145320684844
z" fill="none" stroke="none" style="animation-play-state:paused" ></path>


<circle cx="0" cy="0" r="2.2550363313499835" fill="#ffffff" opacity="0.9" transform="translate(510.97857666015625 949.34423828125)" style="opacity:0.9;animation-play-state:paused" ></circle>
<path id="path17" d="M 572.8530360120709 1024.9266275027571
c 0 33.98358583241925 -8.31513270367705 9.761242739099146 -18.076375442776197 9.761242739099146
S 536.7002851265185 1058.9102133351764 536.7002851265185 1024.9266275027571
s 8.31513270367705 -9.761242739099146 18.076375442776197 -9.761242739099146
S 572.8530360120709 990.9430416703378 572.8530360120709 1024.9266275027571
z" fill="none" stroke="none" style="animation-play-state:paused" ></path>


<circle cx="0" cy="0" r="1.9630039008552502" fill="#ffffff" opacity="0.9" transform="translate(543.0142822265625 1041.955322265625)" style="opacity:0.9;animation-play-state:paused" ></circle>
<path id="path18" d="M 688.2875608189814 787.1729870426084
c 0 28.525595587885537 -6.979667005546461 8.193522136945846 -15.173189142492307 8.193522136945846
S 657.9411825339968 815.6985826304939 657.9411825339968 787.1729870426084
s 6.979667005546461 -8.193522136945846 15.173189142492307 -8.193522136945846
S 688.2875608189814 758.6473914547229 688.2875608189814 787.1729870426084
z" fill="none" stroke="none" style="animation-play-state:paused" ></path>


<circle cx="0" cy="0" r="1.4638393656763484" fill="#ffffff" opacity="0.9" transform="translate(658.2464599609375 778.7483520507812)" style="opacity:0.9;animation-play-state:paused" ></circle>
<path id="path19" d="M 392.79332868982954 882.3195633044412
c 0 28.747445109803834 -7.0339493353775335 8.25724487196493 -15.291194207342464 8.25724487196493
S 362.2109402751446 911.067008414245 362.2109402751446 882.3195633044412
s 7.0339493353775335 -8.25724487196493 15.291194207342464 -8.25724487196493
S 392.79332868982954 853.5721181946374 392.79332868982954 882.3195633044412
z" fill="none" stroke="none" style="animation-play-state:paused" ></path>


<circle cx="0" cy="0" r="2.4842178776764348" fill="#ffffff" opacity="0.9" transform="translate(363.0465087890625 894.3865966796875)" style="opacity:0.9;animation-play-state:paused" ></circle>
<path id="path20" d="M 1559.18991582583 523.490355050644
c 0 28.25520852974532 -6.913508470044067 8.115857769182167 -15.029366239226235 8.115857769182167
S 1529.1311833473776 551.7455635803893 1529.1311833473776 523.490355050644
s 6.913508470044067 -8.115857769182167 15.029366239226235 -8.115857769182167
S 1559.18991582583 495.23514652089864 1559.18991582583 523.490355050644
z" fill="none" stroke="none" style="animation-play-state:paused" ></path>


<circle cx="0" cy="0" r="2.15905930569034" fill="#ffffff" opacity="0.9" transform="translate(1558.65087890625 513.1500244140625)" style="opacity:0.9;animation-play-state:paused" ></circle></g></svg>